<svg version="1.1" id="Layer_1" xmlns="http://www.w3.org/2000/svg" xmlns:xlink="http://www.w3.org/1999/xlink" x="0px" y="0px"
	 width="100%" viewBox="0 0 2000 539" enable-background="new 0 0 2000 539" xml:space="preserve">
<path fill="#4C6971" opacity="1.000000" stroke="none" 
	d="
M1533.000000,540.000000 
	C1022.000000,540.000000 511.500000,540.000000 1.000000,540.000000 
	C1.000000,360.333344 1.000000,180.666672 1.000000,1.000000 
	C667.666687,1.000000 1334.333374,1.000000 2001.000000,1.000000 
	C2001.000000,180.666672 2001.000000,360.333344 2001.000000,540.000000 
	C1845.166626,540.000000 1689.333374,540.000000 1533.000000,540.000000 
M1588.500000,5.996240 
	C1083.006104,5.996125 577.512146,5.994021 72.018257,6.039471 
	C68.754364,6.039765 65.422668,6.393590 62.237614,7.100444 
	C40.319336,11.964728 24.918049,32.227432 24.936129,54.485962 
	C25.052685,197.984299 24.988625,341.482788 25.036720,484.981232 
	C25.037928,488.581604 25.431873,492.217010 26.010296,495.776337 
	C29.614944,517.957703 49.465946,535.006409 72.013771,535.006287 
	C692.007080,535.003357 1312.000366,535.005371 1931.993652,534.963257 
	C1935.593872,534.963013 1939.228882,534.565369 1942.788696,533.989380 
	C1964.001221,530.557312 1980.995850,510.697449 1980.997559,488.998657 
	C1981.009277,343.333557 1981.010376,197.668488 1980.959473,52.003410 
	C1980.958374,48.740379 1980.695068,45.375992 1979.885376,42.231030 
	C1974.260986,20.385021 1955.175415,5.945824 1933.496216,5.960250 
	C1818.830811,6.036555 1704.165405,5.996169 1588.500000,5.996240 
z"/>
<path fill="#E80202" opacity="1.000000" stroke="none" 
	d="
M1589.000000,5.996239 
	C1704.165405,5.996169 1818.830811,6.036555 1933.496216,5.960250 
	C1955.175415,5.945824 1974.260986,20.385021 1979.885376,42.231030 
	C1980.695068,45.375992 1980.958374,48.740379 1980.959473,52.003410 
	C1981.010376,197.668488 1981.009277,343.333557 1980.997559,488.998657 
	C1980.995850,510.697449 1964.001221,530.557312 1942.788696,533.989380 
	C1939.228882,534.565369 1935.593872,534.963013 1931.993652,534.963257 
	C1312.000366,535.005371 692.007080,535.003357 72.013771,535.006287 
	C49.465946,535.006409 29.614944,517.957703 26.010296,495.776337 
	C25.431873,492.217010 25.037928,488.581604 25.036720,484.981232 
	C24.988625,341.482788 25.052685,197.984299 24.936129,54.485962 
	C24.918049,32.227432 40.319336,11.964728 62.237614,7.100444 
	C65.422668,6.393590 68.754364,6.039765 72.018257,6.039471 
	C577.512146,5.994021 1083.006104,5.996125 1589.000000,5.996239 
M1873.499634,326.548492 
	C1904.790405,326.548492 1936.081177,326.548492 1967.592163,326.548492 
	C1967.694336,324.712067 1967.829224,323.418335 1967.829468,322.124603 
	C1967.839355,233.460175 1967.856445,144.795731 1967.775879,56.131382 
	C1967.772461,52.347115 1967.299683,48.440716 1966.289429,44.801041 
	C1961.782471,28.560768 1948.320312,19.336153 1929.568848,19.335915 
	C1713.740967,19.333168 1497.913208,19.334154 1282.085327,19.334158 
	C880.595459,19.334164 479.105591,19.330469 77.615715,19.383457 
	C73.318329,19.384024 68.880829,19.573719 64.748322,20.620737 
	C48.115391,24.834875 38.566097,38.340237 38.561573,57.234112 
	C38.540512,145.231888 38.551865,233.229675 38.551628,321.227448 
	C38.551624,322.844727 38.551632,324.462006 38.551632,326.548431 
	C650.259521,326.548431 1261.379517,326.548431 1873.499634,326.548492 
M1671.499756,521.664246 
	C1757.496216,521.664246 1843.492554,521.667664 1929.489014,521.661926 
	C1953.324707,521.660339 1967.825439,507.213409 1967.832764,483.439636 
	C1967.847168,437.108490 1967.837036,390.777374 1967.837036,344.446228 
	C1967.837036,342.675720 1967.837158,340.905212 1967.837158,339.095459 
	C1324.455566,339.095459 681.715332,339.095459 38.553387,339.095459 
	C38.553387,341.135895 38.553383,342.927368 38.553387,344.718872 
	C38.553455,390.716705 38.549534,436.714508 38.564495,482.712341 
	C38.565308,485.209534 38.552818,487.726410 38.837723,490.200592 
	C40.425404,503.988220 47.660755,513.900696 60.507153,518.839050 
	C65.924629,520.921570 72.193245,521.554199 78.075241,521.555481 
	C608.883423,521.672668 1139.691528,521.664246 1671.499756,521.664246 
z"/>
<path fill="#FFFDFD" opacity="1.000000" stroke="none" 
	d="
M1872.999512,326.548462 
	C1261.379517,326.548431 650.259521,326.548431 38.551632,326.548431 
	C38.551632,324.462006 38.551624,322.844727 38.551628,321.227448 
	C38.551865,233.229675 38.540512,145.231888 38.561573,57.234112 
	C38.566097,38.340237 48.115391,24.834875 64.748322,20.620737 
	C68.880829,19.573719 73.318329,19.384024 77.615715,19.383457 
	C479.105591,19.330469 880.595459,19.334164 1282.085327,19.334158 
	C1497.913208,19.334154 1713.740967,19.333168 1929.568848,19.335915 
	C1948.320312,19.336153 1961.782471,28.560768 1966.289429,44.801041 
	C1967.299683,48.440716 1967.772461,52.347115 1967.775879,56.131382 
	C1967.856445,144.795731 1967.839355,233.460175 1967.829468,322.124603 
	C1967.829224,323.418335 1967.694336,324.712067 1967.592163,326.548492 
	C1936.081177,326.548492 1904.790405,326.548492 1872.999512,326.548462 
M779.016296,252.498596 
	C779.016296,258.269928 779.016296,264.041260 779.016296,269.830780 
	C789.373962,269.830780 799.091370,269.830780 809.043945,269.830780 
	C809.043945,263.505402 809.054321,257.529602 809.042419,251.553848 
	C808.944031,202.079529 808.769958,152.605087 808.851807,103.131065 
	C808.859924,98.239311 807.432434,96.705452 802.695862,97.169579 
	C798.735962,97.557594 794.614990,97.799500 790.727539,97.144279 
	C779.783386,95.299698 772.731995,99.362381 767.582214,109.223625 
	C763.577820,116.891563 757.827271,123.647606 752.688965,131.044739 
	C746.927307,122.711998 740.921753,115.254684 736.318115,107.014160 
	C731.943359,99.183426 726.447632,96.007851 717.509949,97.090240 
	C710.851318,97.896637 704.016602,97.249138 696.963867,97.249138 
	C696.963867,155.323364 696.963867,212.550201 696.963867,269.778809 
	C706.958191,269.778809 716.655273,269.778809 726.968750,269.778809 
	C726.968750,227.552155 726.968750,185.725449 726.968750,142.502472 
	C736.020813,155.696365 744.219971,167.647049 752.724487,180.042816 
	C761.395935,167.539169 769.719360,155.537460 778.618286,142.705826 
	C778.813660,144.398666 778.884399,144.726486 778.884827,145.054398 
	C778.931641,180.536026 778.973145,216.017654 779.016296,252.498596 
M267.983826,265.641663 
	C300.793671,249.865158 308.349701,207.667130 283.408142,181.537476 
	C283.569641,181.255219 283.687012,180.932755 283.900787,180.698151 
	C284.571075,179.962677 285.292694,179.274155 285.967987,178.543030 
	C298.986633,164.447861 303.160400,148.075150 296.498444,130.065567 
	C289.676178,111.622673 276.211243,99.628220 256.249237,98.064865 
	C238.525589,96.676804 220.628128,97.503822 202.807144,97.389374 
	C202.378372,97.386627 201.946854,97.812698 201.215256,98.197121 
	C201.215256,155.349319 201.215256,212.593216 201.215256,270.181122 
	C216.299377,270.181122 231.122513,270.624939 245.899323,269.990112 
	C253.071030,269.682037 260.155975,267.354095 267.983826,265.641663 
M845.732483,261.801422 
	C860.441833,273.355804 876.750977,276.347229 893.979980,269.066498 
	C911.548889,261.642059 923.198608,247.939026 923.927979,228.807053 
	C925.100281,198.057526 925.398560,167.137558 923.497131,136.448792 
	C921.794922,108.975212 892.759827,89.757576 865.941101,95.724213 
	C843.166687,100.791061 827.388977,120.478722 827.205200,144.460602 
	C827.008606,170.110001 827.136292,195.761780 826.977600,221.411636 
	C826.877502,237.594681 833.048584,250.797089 845.732483,261.801422 
M409.387573,234.680450 
	C409.871216,231.227097 410.769409,227.774139 410.772675,224.320328 
	C410.798340,197.344330 410.897125,170.364349 410.476715,143.393341 
	C410.173798,123.957367 400.980408,109.240379 384.001190,100.043701 
	C352.206848,82.822487 313.952972,106.900932 313.382599,144.443359 
	C312.982910,170.748917 312.977783,197.064087 313.120209,223.373230 
	C313.256561,248.552963 332.182526,269.344391 357.398346,272.551178 
	C380.186096,275.449188 402.815125,259.248169 409.387573,234.680450 
M506.627289,261.153473 
	C517.644531,251.411362 524.084717,239.356537 524.147217,224.504822 
	C524.264160,196.692535 524.393677,168.872986 523.895996,141.067566 
	C523.442261,115.709579 501.238190,94.767509 475.684998,94.731415 
	C449.927032,94.695030 427.509216,115.823845 427.098572,141.298294 
	C426.650330,169.105240 426.481110,196.930313 426.963715,224.734070 
	C427.313629,244.894073 437.818970,259.559418 455.646393,268.125519 
	C473.454285,276.682281 490.580994,273.905975 506.627289,261.153473 
M1575.860718,197.649673 
	C1571.598633,188.633087 1567.439453,179.565598 1563.013184,170.630371 
	C1561.654663,167.887909 1561.935791,165.890350 1563.545776,163.350174 
	C1576.373169,143.109848 1589.053101,122.775955 1601.760864,102.459900 
	C1602.671875,101.003387 1603.446533,99.461456 1604.682495,97.246208 
	C1595.426636,97.246208 1587.136475,97.408730 1578.858154,97.168518 
	C1575.407227,97.068382 1573.431030,98.335381 1571.592651,101.164337 
	C1560.437744,118.330048 1549.112061,135.384750 1537.826660,152.465576 
	C1537.067017,153.615479 1536.172119,154.676071 1534.440918,156.969284 
	C1534.440918,136.271439 1534.440918,117.037498 1534.440918,97.566628 
	C1524.336548,97.566628 1514.781982,97.566628 1504.676514,97.566628 
	C1504.676514,155.135284 1504.676514,212.384369 1504.676514,269.880432 
	C1514.368408,269.880432 1524.084473,269.880432 1534.181763,269.880432 
	C1534.181763,252.611755 1534.773682,235.616409 1533.944580,218.690643 
	C1533.496216,209.535065 1538.344727,203.710541 1542.938599,196.528000 
	C1543.847900,198.378601 1544.449829,199.537277 1544.994629,200.722229 
	C1554.992920,222.468552 1564.944336,244.236694 1575.054810,265.930725 
	C1575.837769,267.610870 1577.685181,269.941620 1579.108398,269.992340 
	C1589.049438,270.346710 1599.009155,270.179779 1609.956543,270.179779 
	C1598.440308,245.736420 1587.278320,222.044876 1575.860718,197.649673 
M625.445068,126.964615 
	C631.460693,117.339447 637.476318,107.714272 644.018555,97.246529 
	C634.592896,97.246529 626.460144,97.464989 618.347900,97.151535 
	C614.470398,97.001717 612.320312,98.499924 610.303284,101.608871 
	C599.252136,118.643127 588.020569,135.560410 576.832092,152.505447 
	C576.078613,153.646606 575.170410,154.685562 573.444885,156.927322 
	C573.444885,136.250687 573.444885,117.009453 573.444885,97.579536 
	C563.347107,97.579536 553.789307,97.579536 543.695801,97.579536 
	C543.695801,155.159180 543.695801,212.406799 543.695801,269.866852 
	C553.433655,269.866852 563.149109,269.866852 573.223694,269.866852 
	C573.223694,252.081314 573.689880,234.593857 573.026184,217.149353 
	C572.696228,208.477890 578.044617,203.411957 581.991882,196.309860 
	C582.987122,198.433746 583.548279,199.610291 584.092102,200.794785 
	C594.077332,222.544250 604.029480,244.309082 614.107605,266.015411 
	C614.848877,267.612061 616.459534,269.936462 617.728821,269.977478 
	C627.821045,270.303802 637.928467,270.159332 648.691711,270.159332 
	C647.822876,268.008026 647.292786,266.487335 646.611145,265.037872 
	C631.968994,233.904205 617.371155,202.749313 602.566895,171.692841 
	C600.944580,168.289536 600.858643,165.867218 602.970154,162.631943 
	C610.517029,151.068451 617.718140,139.279282 625.445068,126.964615 
M1156.500000,270.180573 
	C1164.593384,270.180573 1172.686890,270.180573 1180.840332,270.180573 
	C1180.840332,259.792358 1180.840332,250.044434 1180.840332,239.810013 
	C1163.541626,239.810013 1146.479980,239.810013 1129.388672,239.810013 
	C1129.388672,224.966354 1129.388672,210.615341 1129.388672,195.795044 
	C1146.846680,195.795044 1163.902832,195.795044 1180.686035,195.795044 
	C1180.686035,185.723007 1180.686035,176.129868 1180.686035,165.984131 
	C1163.270142,165.984131 1146.229126,165.984131 1129.289551,165.984131 
	C1129.289551,152.844894 1129.289551,140.274124 1129.289551,127.097961 
	C1146.622070,127.097961 1163.657959,127.097961 1180.609619,127.097961 
	C1180.609619,116.916878 1180.609619,107.351028 1180.609619,97.568817 
	C1153.387207,97.568817 1126.500977,97.568817 1099.280396,97.568817 
	C1099.280396,155.223953 1099.280396,212.561478 1099.280396,270.180573 
	C1118.231567,270.180573 1136.865845,270.180573 1156.500000,270.180573 
M1646.500122,97.250175 
	C1638.075562,97.250175 1629.651001,97.250175 1621.128418,97.250175 
	C1621.128418,155.311203 1621.128418,212.552643 1621.128418,269.894409 
	C1648.482666,269.894409 1675.541992,269.894409 1702.770752,269.894409 
	C1702.770752,259.860901 1702.770752,250.115250 1702.770752,239.849945 
	C1685.487793,239.849945 1668.423340,239.849945 1651.126221,239.849945 
	C1651.126221,225.092194 1651.126221,210.854630 1651.126221,196.129486 
	C1668.400635,196.129486 1685.468994,196.129486 1702.556152,196.129486 
	C1702.556152,185.924637 1702.556152,176.213486 1702.556152,165.919418 
	C1685.080078,165.919418 1668.033691,165.919418 1651.266602,165.919418 
	C1651.266602,152.756577 1651.266602,140.188354 1651.266602,127.147034 
	C1668.555786,127.147034 1685.466797,127.147034 1702.835815,127.147034 
	C1702.835815,118.712730 1702.594238,110.744652 1702.932495,102.801254 
	C1703.115234,98.506561 1702.046875,97.058815 1697.481079,97.137245 
	C1680.825073,97.423393 1664.161133,97.250252 1646.500122,97.250175 
M1400.912842,111.431030 
	C1393.988770,119.521523 1389.385498,128.909927 1389.219238,139.475845 
	C1388.755371,168.952042 1388.176758,198.468033 1389.198486,227.914337 
	C1390.220093,257.349487 1420.077393,278.413727 1448.667480,271.456635 
	C1469.830811,266.306732 1490.623169,244.739410 1485.435913,210.098755 
	C1475.716919,210.098755 1465.997803,210.098755 1455.944946,210.098755 
	C1455.944946,214.749191 1456.128174,219.064026 1455.908813,223.358307 
	C1455.364624,234.009262 1446.985840,242.699722 1437.409058,242.764893 
	C1427.610474,242.831573 1419.197266,234.732834 1419.098877,224.098083 
	C1418.847534,196.947037 1418.870850,169.790878 1419.096313,142.639359 
	C1419.173218,133.380951 1425.573364,126.105171 1433.630981,124.834579 
	C1445.490479,122.964447 1455.291504,131.004822 1455.909302,143.277069 
	C1456.132324,147.709732 1455.945068,152.163040 1455.945068,156.752747 
	C1466.131836,156.752747 1475.708496,156.752747 1485.250977,156.752747 
	C1488.692017,130.729782 1479.180054,110.415115 1459.168945,99.838676 
	C1439.874146,89.640739 1417.300903,94.119461 1400.912842,111.431030 
M1025.042847,133.568069 
	C1027.398804,121.701805 1029.754639,109.835548 1032.190552,97.566742 
	C1021.946289,97.566742 1012.222961,97.566742 1002.137024,97.566742 
	C995.605347,134.869278 989.108337,171.974319 982.427063,210.131119 
	C981.657898,208.562195 981.332703,208.151627 981.251587,207.697479 
	C975.136719,173.477509 969.127197,139.238373 962.886169,105.041504 
	C961.239319,96.018059 963.182068,97.381798 953.771729,97.255745 
	C949.940796,97.204430 946.108582,97.247276 942.276978,97.247276 
	C938.739807,97.247276 935.202637,97.247276 931.168884,97.247276 
	C942.878357,155.530960 954.364075,212.700638 965.872253,269.982239 
	C976.727661,269.982239 987.177612,269.982239 998.027100,269.982239 
	C1007.014099,224.717438 1015.977905,179.569290 1025.042847,133.568069 
M1293.945801,238.500000 
	C1293.945801,201.579834 1293.945801,164.659683 1293.945801,127.280685 
	C1305.187622,127.280685 1315.940308,127.280685 1326.831787,127.280685 
	C1326.831787,117.111786 1326.831787,107.408203 1326.831787,97.526649 
	C1294.726929,97.526649 1262.985229,97.526649 1230.773438,97.526649 
	C1230.773438,107.503502 1230.773438,117.205482 1230.773438,127.507736 
	C1241.934570,127.507736 1252.835449,127.507736 1264.126221,127.507736 
	C1264.126221,175.350464 1264.126221,222.599411 1264.126221,269.803223 
	C1274.262695,269.803223 1283.980957,269.803223 1293.946655,269.803223 
	C1293.946655,259.450104 1293.946655,249.475052 1293.945801,238.500000 
M1748.975098,142.505508 
	C1748.975098,184.933472 1748.975098,227.361450 1748.975098,269.831238 
	C1759.273438,269.831238 1768.990601,269.831238 1779.062500,269.831238 
	C1779.062500,222.245987 1779.062500,175.010178 1779.062500,127.146286 
	C1790.287354,127.146286 1801.164062,127.146286 1811.925781,127.146286 
	C1811.925781,116.926636 1811.925781,107.340912 1811.925781,97.507042 
	C1779.853027,97.507042 1748.113647,97.507042 1715.884644,97.507042 
	C1715.884644,107.463676 1715.884644,117.175171 1715.884644,127.464607 
	C1726.947510,127.464607 1737.858643,127.464607 1748.975098,127.464607 
	C1748.975098,132.524963 1748.975098,137.016678 1748.975098,142.505508 
M1339.500366,213.500168 
	C1339.500366,232.270065 1339.500366,251.039963 1339.500366,269.907837 
	C1349.802368,269.907837 1359.558716,269.907837 1369.285889,269.907837 
	C1369.285889,212.272171 1369.285889,154.920258 1369.285889,97.668442 
	C1359.171387,97.668442 1349.622559,97.668442 1339.502808,97.668442 
	C1339.502808,136.229553 1339.502808,174.364853 1339.500366,213.500168 
M1046.958984,121.500031 
	C1046.958984,170.923065 1046.958984,220.346115 1046.958984,269.893036 
	C1057.128662,269.893036 1066.859863,269.893036 1076.665771,269.893036 
	C1076.665771,212.377777 1076.665771,155.151031 1076.665771,97.644943 
	C1066.632080,97.644943 1056.936523,97.644943 1046.959595,97.644943 
	C1046.959595,105.524139 1046.959595,113.012100 1046.958984,121.500031 
z"/>
<path fill="#FFFEFE" opacity="1.000000" stroke="none" 
	d="
M1670.999756,521.664246 
	C1139.691528,521.664246 608.883423,521.672668 78.075241,521.555481 
	C72.193245,521.554199 65.924629,520.921570 60.507153,518.839050 
	C47.660755,513.900696 40.425404,503.988220 38.837723,490.200592 
	C38.552818,487.726410 38.565308,485.209534 38.564495,482.712341 
	C38.549534,436.714508 38.553455,390.716705 38.553387,344.718872 
	C38.553383,342.927368 38.553387,341.135895 38.553387,339.095459 
	C681.715332,339.095459 1324.455566,339.095459 1967.837158,339.095459 
	C1967.837158,340.905212 1967.837036,342.675720 1967.837036,344.446228 
	C1967.837036,390.777374 1967.847168,437.108490 1967.832764,483.439636 
	C1967.825439,507.213409 1953.324707,521.660339 1929.489014,521.661926 
	C1843.492554,521.667664 1757.496216,521.664246 1670.999756,521.664246 
M1915.796875,449.283020 
	C1918.959839,430.795197 1922.122925,412.307343 1925.338257,393.513580 
	C1923.516357,393.397522 1922.205200,393.401489 1920.921265,393.216614 
	C1916.193726,392.535919 1913.982666,393.837128 1913.481934,399.298492 
	C1912.471680,410.318054 1910.428711,421.242920 1908.811646,432.206818 
	C1906.470215,420.358612 1904.557129,408.547394 1903.139160,396.677094 
	C1902.676025,392.801666 1900.491455,393.231384 1897.976929,393.215149 
	C1895.425293,393.198669 1893.315308,392.882233 1892.849487,396.719330 
	C1891.413086,408.553741 1889.470337,420.326721 1887.724365,432.123535 
	C1885.663330,422.317474 1884.233643,412.472290 1882.920532,402.611572 
	C1881.606689,392.747162 1881.657593,392.736206 1871.935913,393.333130 
	C1871.659302,393.350098 1871.401855,393.677704 1870.938232,393.995789 
	C1871.044312,395.188507 1871.067749,396.513214 1871.291016,397.803345 
	C1874.127319,414.190887 1877.021851,430.568359 1879.839233,446.959076 
	C1881.596558,457.181763 1881.549438,457.193115 1892.041260,456.659088 
	C1892.327271,456.644531 1892.600464,456.379333 1893.279785,456.018433 
	C1894.623535,446.853210 1896.005493,437.426392 1897.387573,427.999573 
	C1897.740601,427.976898 1898.093506,427.954254 1898.446533,427.931610 
	C1899.872070,437.450775 1901.297607,446.969940 1902.701538,456.345428 
	C1914.161987,457.667999 1914.161987,457.667999 1915.796875,449.283020 
M1687.152100,441.495544 
	C1687.152100,431.503296 1687.152100,421.511047 1687.152100,411.518768 
	C1687.529663,411.465149 1687.907104,411.411530 1688.284668,411.357880 
	C1690.989868,415.279510 1693.695190,419.201111 1696.713379,423.576385 
	C1699.758789,419.266846 1702.553589,415.311798 1705.348511,411.356720 
	C1705.686646,411.468506 1706.024780,411.580292 1706.362915,411.692047 
	C1706.362915,426.567780 1706.362915,441.443481 1706.362915,456.536804 
	C1710.213013,456.536804 1713.487427,456.536804 1716.839844,456.536804 
	C1716.839844,435.451904 1716.839844,414.454468 1716.839844,394.074158 
	C1705.185913,389.441956 1701.645508,398.395874 1696.804932,405.652618 
	C1693.991577,401.616211 1692.229492,397.057129 1688.908081,394.909424 
	C1685.758545,392.872742 1680.975342,393.362244 1676.452515,392.670837 
	C1676.452515,414.676178 1676.452515,435.529053 1676.452515,456.541138 
	C1680.061279,456.541138 1683.318481,456.541138 1687.150391,456.541138 
	C1687.150391,451.717377 1687.150391,447.105347 1687.152100,441.495544 
M1261.410400,393.225555 
	C1256.968994,393.225555 1252.527466,393.225555 1247.710693,393.225555 
	C1247.710693,414.612305 1247.710693,435.476410 1247.710693,456.558105 
	C1251.252441,456.558105 1254.520020,456.558105 1258.531006,456.558105 
	C1258.531006,447.548065 1258.531006,438.667358 1258.531006,429.897827 
	C1269.554565,428.704041 1272.437134,431.193237 1272.458740,441.223267 
	C1272.469604,446.323029 1272.460571,451.422821 1272.460571,456.533936 
	C1276.488403,456.533936 1279.762939,456.533936 1283.797485,456.533936 
	C1282.679932,445.593750 1286.381226,434.392517 1278.931396,424.743164 
	C1288.568604,413.994965 1284.749146,398.854095 1272.652954,394.626526 
	C1269.451782,393.507751 1265.807251,393.658051 1261.410400,393.225555 
M1625.624756,429.559296 
	C1636.146362,429.269287 1638.207275,431.272888 1638.213257,441.805359 
	C1638.216064,446.722504 1638.213623,451.639648 1638.213623,456.520203 
	C1642.329102,456.520203 1645.600586,456.520203 1649.485107,456.520203 
	C1648.295410,445.571747 1652.185059,434.333313 1644.796021,424.681885 
	C1654.921143,413.212555 1650.051025,397.100281 1636.892822,394.230560 
	C1629.447388,392.606689 1621.496094,393.301453 1613.532471,392.941010 
	C1613.532471,414.773865 1613.532471,435.623230 1613.532471,456.492706 
	C1617.198486,456.492706 1620.457397,456.492706 1624.781128,456.492706 
	C1624.781128,447.477570 1624.781128,438.730835 1625.624756,429.559296 
M1363.579224,418.133881 
	C1366.184204,418.133881 1368.789062,418.133881 1372.069824,418.133881 
	C1371.698853,413.562225 1371.873047,409.515747 1370.953857,405.735107 
	C1369.286987,398.879517 1364.668335,394.481873 1357.721680,392.949036 
	C1349.274536,391.085144 1341.105225,395.376190 1337.669434,403.224792 
	C1334.068604,411.450500 1336.896851,421.521118 1344.547363,426.630280 
	C1348.684937,429.393402 1353.216919,431.559326 1357.427124,434.222107 
	C1360.184082,435.965759 1362.059814,438.774292 1360.038574,441.796295 
	C1358.661377,443.854889 1356.025635,445.946198 1353.697144,446.289368 
	C1350.177612,446.808197 1347.989624,444.003235 1347.259888,440.585236 
	C1346.889038,438.848724 1347.018066,437.005463 1346.909912,435.000427 
	C1343.302612,435.000427 1339.903442,435.000427 1336.124878,435.000427 
	C1336.124878,437.034790 1335.997803,438.838318 1336.146240,440.618896 
	C1336.925049,449.961914 1344.337891,457.205780 1353.403687,457.565430 
	C1362.309570,457.918732 1369.903687,451.528595 1371.569946,442.279083 
	C1372.886475,434.972076 1369.813721,428.785553 1362.545410,424.381256 
	C1358.428589,421.886719 1353.992798,419.852936 1350.129517,417.025604 
	C1346.871094,414.640808 1345.735474,410.623108 1348.130615,407.284363 
	C1349.567017,405.281891 1352.942749,403.467834 1355.322144,403.613129 
	C1359.365723,403.860077 1360.711182,407.494446 1360.779541,411.343262 
	C1360.809082,413.008545 1360.652222,414.701813 1360.919800,416.326416 
	C1361.030762,417.000916 1362.030396,417.529144 1363.579224,418.133881 
M1161.758911,452.376953 
	C1161.758911,450.266846 1161.758911,448.156769 1161.758911,445.473419 
	C1155.177490,445.473419 1149.114380,445.473419 1142.860474,445.473419 
	C1142.860474,439.993225 1142.860474,435.094818 1142.860474,429.627625 
	C1149.152466,429.627625 1155.212646,429.627625 1161.350586,429.627625 
	C1161.350586,425.678558 1161.350586,422.305603 1161.350586,418.312866 
	C1154.940430,418.312866 1148.899902,418.312866 1143.019897,418.312866 
	C1143.019897,413.279633 1143.019897,408.884857 1143.019897,404.128754 
	C1149.371826,404.128754 1155.316895,404.128754 1161.287476,404.128754 
	C1161.287476,400.352722 1161.287476,396.965149 1161.287476,393.455994 
	C1151.326416,393.455994 1141.748169,393.455994 1131.867188,393.455994 
	C1131.867188,414.569122 1131.867188,435.450470 1131.867188,456.770844 
	C1141.078979,456.770844 1150.027588,456.877075 1158.965576,456.617310 
	C1159.928345,456.589325 1160.829102,454.435913 1161.758911,452.376953 
M1422.730347,399.122528 
	C1419.265991,418.163574 1415.801636,437.204651 1412.285889,456.527649 
	C1416.329102,456.527649 1419.577148,456.527649 1423.041016,456.527649 
	C1423.526978,454.276276 1423.972778,452.210724 1424.433716,450.075134 
	C1428.622925,450.075134 1432.668579,450.075134 1436.648315,450.075134 
	C1437.797119,457.548248 1439.152588,458.212982 1448.542236,455.972107 
	C1444.959595,435.241791 1441.372437,414.484802 1437.699585,393.232025 
	C1434.578247,393.232025 1431.584717,393.490112 1428.654541,393.169312 
	C1424.626709,392.728302 1422.685669,394.180481 1422.730347,399.122528 
M1535.264160,393.231964 
	C1532.285400,393.231964 1529.306641,393.231964 1525.938843,393.231964 
	C1522.121216,414.353729 1518.348267,435.227936 1514.455811,456.763702 
	C1517.717041,456.763702 1520.366821,457.010773 1522.929688,456.646179 
	C1524.004883,456.493195 1525.756958,455.013153 1525.726807,454.190521 
	C1525.564819,449.776062 1528.094727,449.415894 1531.472412,449.653961 
	C1533.899658,449.825043 1536.348633,449.687225 1538.643188,449.687225 
	C1539.216797,452.395233 1539.656250,454.470032 1540.048706,456.322601 
	C1543.832642,456.322601 1547.189575,456.322601 1550.801636,456.322601 
	C1547.336426,436.210846 1543.915894,416.583588 1540.613892,396.936432 
	C1540.151123,394.183167 1539.191162,392.614441 1535.264160,393.231964 
M1854.466797,393.227173 
	C1848.201660,393.227173 1841.936523,393.227173 1835.539307,393.227173 
	C1835.539307,414.726440 1835.539307,435.571808 1835.539307,456.593567 
	C1845.525879,456.593567 1855.129517,456.593567 1864.971680,456.593567 
	C1864.971680,452.887817 1864.971680,449.340149 1864.971680,445.228485 
	C1858.588257,445.228485 1852.539551,445.228485 1846.556030,445.228485 
	C1846.556030,439.764893 1846.556030,434.874695 1846.556030,429.648010 
	C1852.854248,429.648010 1858.791870,429.648010 1865.003418,429.648010 
	C1865.003418,425.881104 1865.003418,422.465607 1865.003418,418.468811 
	C1858.764038,418.468811 1852.703979,418.468811 1846.503418,418.468811 
	C1846.503418,413.497284 1846.503418,409.108063 1846.503418,404.167358 
	C1852.855469,404.167358 1858.911499,404.167358 1864.801392,404.167358 
	C1864.801392,400.228027 1864.801392,396.856110 1864.801392,393.227203 
	C1861.403809,393.227203 1858.427734,393.227203 1854.466797,393.227173 
M1220.121582,415.397675 
	C1220.121582,411.804474 1220.121582,408.211243 1220.121582,404.101624 
	C1226.849243,404.101624 1232.904053,404.101624 1238.913574,404.101624 
	C1238.913574,400.280762 1238.913574,397.011536 1238.913574,393.573700 
	C1228.960449,393.573700 1219.254150,393.573700 1209.496338,393.573700 
	C1209.496338,414.767822 1209.496338,435.615509 1209.496338,456.529205 
	C1219.492432,456.529205 1229.085571,456.529205 1238.947754,456.529205 
	C1238.947754,452.869904 1238.947754,449.448517 1238.947754,445.501984 
	C1232.749023,445.501984 1226.664185,445.501984 1220.356689,445.501984 
	C1220.356689,440.065002 1220.356689,435.150726 1220.356689,429.692078 
	C1226.631470,429.692078 1232.699585,429.692078 1238.904541,429.692078 
	C1238.904541,425.738861 1238.904541,422.335571 1238.904541,418.532959 
	C1233.646606,418.532959 1228.670044,418.672333 1223.711670,418.433929 
	C1222.487427,418.375092 1221.322021,417.088226 1220.121582,415.397675 
M1736.051758,411.574707 
	C1736.051758,409.297272 1736.051758,407.019836 1736.051758,404.230774 
	C1742.603638,404.230774 1748.663086,404.230774 1754.710693,404.230774 
	C1754.710693,400.319489 1754.710693,396.938629 1754.710693,393.657776 
	C1744.668457,393.657776 1734.974365,393.657776 1725.277100,393.657776 
	C1725.277100,414.814484 1725.277100,435.546234 1725.277100,456.492950 
	C1735.261230,456.492950 1744.981934,456.492950 1754.891113,456.492950 
	C1754.891113,452.801788 1754.891113,449.385590 1754.891113,445.476196 
	C1748.591431,445.476196 1742.516479,445.476196 1736.428711,445.476196 
	C1736.428711,439.940460 1736.428711,434.904144 1736.428711,429.536133 
	C1742.748779,429.536133 1748.694214,429.536133 1754.855713,429.536133 
	C1754.855713,425.781799 1754.855713,422.375702 1754.855713,418.455048 
	C1748.552002,418.455048 1742.483032,418.455048 1736.051758,418.455048 
	C1736.051758,416.142151 1736.051758,414.340363 1736.051758,411.574707 
M1378.118774,411.501099 
	C1378.118774,426.425903 1378.118774,441.350739 1378.118774,456.468079 
	C1388.381592,456.468079 1398.105591,456.468079 1407.906128,456.468079 
	C1407.906128,452.750031 1407.906128,449.336060 1407.906128,445.369934 
	C1401.567017,445.369934 1395.504517,445.369934 1389.387573,445.369934 
	C1389.387573,439.894867 1389.387573,434.980865 1389.387573,429.543091 
	C1395.732056,429.543091 1401.808594,429.543091 1407.802490,429.543091 
	C1407.802490,425.611908 1407.802490,422.221619 1407.802490,418.456635 
	C1401.492676,418.456635 1395.550049,418.456635 1389.360718,418.456635 
	C1389.360718,413.654999 1389.360718,409.245514 1389.360718,404.303192 
	C1395.599121,404.303192 1401.667725,404.303192 1407.815430,404.303192 
	C1407.815430,400.381531 1407.815430,396.999084 1407.815430,393.639648 
	C1397.781616,393.639648 1388.074951,393.639648 1378.119751,393.639648 
	C1378.119751,399.531891 1378.119751,405.017029 1378.118774,411.501099 
M1570.986816,431.500000 
	C1570.986816,439.771759 1570.986816,448.043518 1570.986816,456.450134 
	C1574.876953,456.450134 1578.267334,456.450134 1582.162231,456.450134 
	C1582.162231,448.586060 1582.162231,441.021759 1582.162231,433.101898 
	C1585.306396,433.101898 1587.957031,433.262878 1590.582153,433.072144 
	C1598.840698,432.472015 1605.455444,425.483459 1606.826416,416.077301 
	C1608.296753,405.988342 1604.372437,396.693665 1596.207764,394.866943 
	C1588.150757,393.064301 1579.625488,393.354736 1570.989380,392.703033 
	C1570.989380,406.210327 1570.989380,418.355164 1570.986816,431.500000 
M145.056656,421.573914 
	C145.051773,420.077576 145.074158,418.580566 145.037582,417.085022 
	C144.797775,407.278320 137.423416,400.250397 127.257690,400.126312 
	C116.931671,400.000275 109.113632,407.145264 108.962654,417.057861 
	C108.828476,425.867737 108.797798,434.682648 108.929352,443.492218 
	C109.076675,453.357849 116.442863,460.199799 126.747818,460.307159 
	C137.324005,460.417389 144.891052,453.561646 145.073364,443.501221 
	C145.199875,436.520874 145.072815,429.535980 145.056656,421.573914 
M1782.634521,436.954346 
	C1783.410522,440.863098 1784.213867,444.766663 1784.956787,448.681671 
	C1786.546509,457.058319 1786.532227,456.947266 1794.814819,456.834412 
	C1797.475098,456.798157 1798.626099,456.038727 1799.069458,453.318298 
	C1800.056519,447.259399 1801.420044,441.262268 1802.603149,435.234711 
	C1805.312866,421.431366 1808.006348,407.624908 1810.763428,393.527802 
	C1806.878174,393.527802 1803.493774,393.527802 1799.826904,393.527802 
	C1797.457642,406.913757 1795.129883,420.065186 1792.802124,433.216644 
	C1792.590332,433.210663 1792.378418,433.204712 1792.166626,433.198761 
	C1789.761719,419.992188 1787.356689,406.785614 1784.927856,393.447815 
	C1781.207520,393.447815 1777.765625,393.447815 1773.884521,393.447815 
	C1776.754761,407.872009 1779.567383,422.006348 1782.634521,436.954346 
M1190.117188,408.596710 
	C1188.701782,416.767609 1187.286377,424.938477 1185.870972,433.109375 
	C1185.635620,433.087372 1185.400269,433.065338 1185.164917,433.043335 
	C1182.760620,419.851562 1180.356445,406.659760 1177.963501,393.529541 
	C1174.105225,393.529541 1170.694458,393.529541 1167.048462,393.529541 
	C1167.193359,394.656464 1167.248535,395.469421 1167.407227,396.261658 
	C1170.959351,414.007721 1174.540527,431.748047 1178.075684,449.497498 
	C1179.543091,456.865234 1179.503784,456.698059 1187.169556,456.848969 
	C1190.536865,456.915253 1191.644165,455.807465 1192.228638,452.503937 
	C1194.195190,441.388641 1196.623657,430.355804 1198.811157,419.278748 
	C1200.494751,410.753784 1202.081421,402.209717 1203.755371,393.442383 
	C1199.777954,393.442383 1196.507935,393.442383 1192.941040,393.442383 
	C1192.030151,398.305664 1191.146606,403.022736 1190.117188,408.596710 
M197.744705,459.181915 
	C204.740860,461.596039 210.965240,460.372681 215.849075,454.723541 
	C221.879807,447.747864 221.569092,439.310059 218.680710,431.610138 
	C215.305908,422.613556 207.351990,420.291901 198.340286,421.992706 
	C198.340286,418.242859 198.340286,414.817719 198.340286,410.931213 
	C205.088974,410.931213 211.498352,410.931213 217.839890,410.931213 
	C217.839890,407.387665 217.839890,404.330994 217.839890,401.281952 
	C208.237686,401.281952 198.984909,401.281952 189.313248,401.281952 
	C188.813644,412.246094 188.324738,422.975403 187.762741,435.308807 
	C192.593399,434.118683 196.487015,432.802124 200.482315,432.308502 
	C202.898376,432.010010 206.604492,432.130920 207.710495,433.592438 
	C209.383530,435.803253 209.615295,439.319641 209.874557,442.331604 
	C210.206512,446.188416 208.691879,449.447235 204.426529,449.940247 
	C199.804993,450.474365 197.935181,447.466553 197.421631,443.313904 
	C197.342361,442.672852 197.157913,442.044830 196.997833,441.297363 
	C193.773514,441.297363 190.684677,441.297363 187.243210,441.297363 
	C186.658463,449.524323 190.025299,455.195679 197.744705,459.181915 
M79.607658,459.696045 
	C87.374512,459.696045 95.141365,459.696045 103.056267,459.696045 
	C103.056267,455.908325 103.056267,452.682800 103.056267,448.932678 
	C96.860794,448.932678 91.018021,448.932678 84.542397,448.932678 
	C90.164314,441.155060 95.451485,434.132629 100.416496,426.889374 
	C105.356827,419.682098 104.853554,411.795715 99.474991,405.768005 
	C94.403191,400.084015 87.061218,398.580170 80.479393,401.877136 
	C73.233627,405.506683 69.851395,412.993927 71.648979,421.445312 
	C74.715057,421.445312 77.775299,421.445312 80.789177,421.445312 
	C81.087975,418.987793 81.028358,416.757629 81.676384,414.756622 
	C82.775093,411.364105 85.275391,409.349884 88.945183,410.481873 
	C92.371384,411.538696 94.019218,414.288757 93.251221,417.871246 
	C92.885887,419.575470 91.867134,421.231476 90.829285,422.684204 
	C85.513947,430.124451 80.376617,437.719818 74.612640,444.801514 
	C70.930634,449.325378 70.762131,453.970245 71.695755,459.696045 
	C74.069511,459.696045 76.358582,459.696045 79.607658,459.696045 
M160.247559,415.281921 
	C161.655869,411.611023 163.954102,409.125031 168.181870,410.631653 
	C171.638443,411.863403 172.913391,414.761078 172.056808,418.272339 
	C171.679886,419.817352 170.719589,421.289886 169.771103,422.614075 
	C164.544357,429.911102 159.537201,437.396210 153.856277,444.326263 
	C150.083466,448.928650 149.613693,453.704315 150.466736,459.384308 
	C160.960388,459.384308 171.348770,459.384308 181.892792,459.384308 
	C181.892792,455.976807 181.892792,452.776367 181.892792,448.963928 
	C175.717758,448.963928 169.896240,448.963928 163.448441,448.963928 
	C169.286530,440.833496 174.829956,433.577972 179.853851,425.978943 
	C184.374985,419.140411 183.363327,410.989288 177.951004,405.334351 
	C172.681641,399.828735 165.233536,398.571289 158.811935,402.103180 
	C151.822205,405.947540 148.681061,413.390991 150.620804,421.420593 
	C153.702835,421.420593 156.756210,421.420593 160.119919,421.420593 
	C160.119919,419.415802 160.119919,417.763397 160.247559,415.281921 
M1306.989990,456.571594 
	C1307.278687,451.684174 1307.971924,446.779602 1307.765381,441.913177 
	C1307.421143,433.804535 1308.598999,426.135834 1311.554932,418.536102 
	C1314.725098,410.385132 1317.190063,401.959900 1320.056519,393.373810 
	C1316.217529,393.373810 1312.911987,393.373810 1309.235840,393.373810 
	C1307.031860,401.089294 1304.835449,408.778351 1302.240356,417.862946 
	C1300.241333,410.645569 1298.200684,404.841888 1297.114014,398.864746 
	C1296.228271,393.992340 1293.892334,392.453125 1289.339478,393.209320 
	C1287.951172,393.439972 1286.522827,393.429810 1284.558716,393.569275 
	C1288.111572,404.270996 1292.433838,414.279846 1294.622925,424.735382 
	C1296.792358,435.096832 1296.811279,445.908600 1297.793213,456.742554 
	C1300.459717,456.742554 1303.275635,456.742554 1306.989990,456.571594 
M1481.965088,398.482300 
	C1481.888062,396.873474 1481.811035,395.264679 1481.724121,393.451294 
	C1469.947388,393.451294 1458.525024,393.451294 1446.725952,393.451294 
	C1446.725952,397.021698 1446.725952,400.408905 1446.725952,404.465332 
	C1450.704590,404.465332 1454.578003,404.465332 1458.908691,404.465332 
	C1458.908691,422.201630 1458.908691,439.280060 1458.908691,456.357117 
	C1462.780884,456.357117 1466.146606,456.357117 1469.900146,456.357117 
	C1469.900146,438.835968 1469.900146,421.729614 1469.900146,404.235626 
	C1474.080200,404.235626 1477.867065,404.235626 1481.965088,404.235626 
	C1481.965088,402.357758 1481.965088,400.872467 1481.965088,398.482300 
M1657.034058,453.203064 
	C1658.491699,461.200043 1664.321045,454.363495 1667.830688,457.593811 
	C1667.830688,435.444031 1667.830688,414.582092 1667.830688,393.583893 
	C1664.165649,393.583893 1660.788330,393.583893 1657.034302,393.583893 
	C1657.034302,413.372070 1657.034302,432.815704 1657.034058,453.203064 
M1816.105835,416.500031 
	C1816.105835,429.749146 1816.105835,442.998291 1816.105835,456.465698 
	C1820.011719,456.465698 1823.396851,456.465698 1826.817871,456.465698 
	C1826.817871,435.310638 1826.817871,414.458130 1826.817871,393.653748 
	C1823.077271,393.653748 1819.709717,393.653748 1816.106567,393.653748 
	C1816.106567,401.214905 1816.106567,408.357483 1816.105835,416.500031 
M1493.132568,462.361298 
	C1493.878296,457.076508 1494.623901,451.791748 1495.428955,446.085876 
	C1490.909180,446.085876 1487.511597,446.085876 1483.923096,446.085876 
	C1483.923096,449.575989 1483.923096,452.979492 1483.923096,456.457855 
	C1485.730957,456.709290 1487.288086,456.925842 1488.769531,457.131866 
	C1489.447144,461.874847 1480.681519,462.084381 1484.859131,468.951019 
	C1487.567871,466.930115 1490.172729,464.986664 1493.132568,462.361298 
z"/>
<path fill="#E80202" opacity="1.000000" stroke="none" 
	d="
M779.015625,251.998932 
	C778.973145,216.017654 778.931641,180.536026 778.884827,145.054398 
	C778.884399,144.726486 778.813660,144.398666 778.618286,142.705826 
	C769.719360,155.537460 761.395935,167.539169 752.724487,180.042816 
	C744.219971,167.647049 736.020813,155.696365 726.968750,142.502472 
	C726.968750,185.725449 726.968750,227.552155 726.968750,269.778809 
	C716.655273,269.778809 706.958191,269.778809 696.963867,269.778809 
	C696.963867,212.550201 696.963867,155.323364 696.963867,97.249138 
	C704.016602,97.249138 710.851318,97.896637 717.509949,97.090240 
	C726.447632,96.007851 731.943359,99.183426 736.318115,107.014160 
	C740.921753,115.254684 746.927307,122.711998 752.688965,131.044739 
	C757.827271,123.647606 763.577820,116.891563 767.582214,109.223625 
	C772.731995,99.362381 779.783386,95.299698 790.727539,97.144279 
	C794.614990,97.799500 798.735962,97.557594 802.695862,97.169579 
	C807.432434,96.705452 808.859924,98.239311 808.851807,103.131065 
	C808.769958,152.605087 808.944031,202.079529 809.042419,251.553848 
	C809.054321,257.529602 809.043945,263.505402 809.043945,269.830780 
	C799.091370,269.830780 789.373962,269.830780 779.016296,269.830780 
	C779.016296,264.041260 779.016296,258.269928 779.015625,251.998932 
z"/>
<path fill="#E80202" opacity="1.000000" stroke="none" 
	d="
M267.632019,265.791138 
	C260.155975,267.354095 253.071030,269.682037 245.899323,269.990112 
	C231.122513,270.624939 216.299377,270.181122 201.215256,270.181122 
	C201.215256,212.593216 201.215256,155.349319 201.215256,98.197121 
	C201.946854,97.812698 202.378372,97.386627 202.807144,97.389374 
	C220.628128,97.503822 238.525589,96.676804 256.249237,98.064865 
	C276.211243,99.628220 289.676178,111.622673 296.498444,130.065567 
	C303.160400,148.075150 298.986633,164.447861 285.967987,178.543030 
	C285.292694,179.274155 284.571075,179.962677 283.900787,180.698151 
	C283.687012,180.932755 283.569641,181.255219 283.409668,181.538345 
	C308.349701,207.667130 300.793671,249.865158 267.632019,265.791138 
M240.487244,240.000153 
	C242.650803,239.991638 244.817215,240.051971 246.977463,239.962982 
	C257.554230,239.527313 266.836945,230.994202 267.956177,220.723358 
	C269.188354,209.415878 262.460541,198.985153 251.439026,196.836594 
	C244.908539,195.563553 238.031998,196.065582 231.256042,195.767029 
	C231.256042,211.026001 231.256042,225.403885 231.256042,240.000153 
	C234.221405,240.000153 236.865891,240.000153 240.487244,240.000153 
M239.545120,126.962708 
	C236.788757,126.962708 234.032394,126.962708 231.413635,126.962708 
	C231.413635,140.346802 231.413635,153.054153 231.413635,165.948563 
	C237.904724,165.948563 244.048996,166.072891 250.186462,165.921219 
	C261.063782,165.652405 269.332123,157.110184 269.298737,146.370224 
	C269.265381,135.657150 260.862610,127.188576 250.011566,126.976357 
	C246.852554,126.914566 243.691376,126.964165 239.545120,126.962708 
z"/>
<path fill="#E80303" opacity="1.000000" stroke="none" 
	d="
M845.464600,261.566071 
	C833.048584,250.797089 826.877502,237.594681 826.977600,221.411636 
	C827.136292,195.761780 827.008606,170.110001 827.205200,144.460602 
	C827.388977,120.478722 843.166687,100.791061 865.941101,95.724213 
	C892.759827,89.757576 921.794922,108.975212 923.497131,136.448792 
	C925.398560,167.137558 925.100281,198.057526 923.927979,228.807053 
	C923.198608,247.939026 911.548889,261.642059 893.979980,269.066498 
	C876.750977,276.347229 860.441833,273.355804 845.464600,261.566071 
M857.242432,196.499878 
	C857.456177,206.801849 856.988281,217.178360 858.104187,227.381683 
	C858.961853,235.224030 864.387756,240.417053 872.333008,242.228302 
	C880.336304,244.052795 886.702515,240.780914 890.670532,234.231537 
	C893.031067,230.335266 894.377808,225.251938 894.481018,220.664047 
	C894.847717,204.363052 894.491211,188.045593 894.395691,171.734436 
	C894.338135,161.915100 894.470520,152.088303 894.122803,142.278854 
	C893.801147,133.202454 887.497437,126.124924 879.207336,124.798592 
	C867.108459,122.862885 857.439270,131.403534 857.294006,144.568726 
	C857.106628,161.543884 857.244568,178.522644 857.242432,196.499878 
z"/>
<path fill="#E80202" opacity="1.000000" stroke="none" 
	d="
M409.281342,235.081299 
	C402.815125,259.248169 380.186096,275.449188 357.398346,272.551178 
	C332.182526,269.344391 313.256561,248.552963 313.120209,223.373230 
	C312.977783,197.064087 312.982910,170.748917 313.382599,144.443359 
	C313.952972,106.900932 352.206848,82.822487 384.001190,100.043701 
	C400.980408,109.240379 410.173798,123.957367 410.476715,143.393341 
	C410.897125,170.364349 410.798340,197.344330 410.772675,224.320328 
	C410.769409,227.774139 409.871216,231.227097 409.281342,235.081299 
M380.668732,179.500687 
	C380.552307,167.019028 380.775299,154.522079 380.214294,142.060425 
	C379.747986,131.702850 371.848816,124.466766 362.132050,124.442116 
	C352.428772,124.417511 344.764160,131.587830 343.645477,141.804550 
	C343.446869,143.618423 343.424164,145.458206 343.423126,147.286072 
	C343.409302,171.421799 343.395782,195.557556 343.439545,219.693207 
	C343.444336,222.344757 343.530090,225.050186 344.045837,227.637436 
	C346.337433,239.133591 358.748962,245.988312 368.843781,241.154480 
	C376.964142,237.266098 380.812744,230.412735 380.807373,221.447937 
	C380.799225,207.798843 380.721649,194.149780 380.668732,179.500687 
z"/>
<path fill="#E80101" opacity="1.000000" stroke="none" 
	d="
M506.362305,261.389008 
	C490.580994,273.905975 473.454285,276.682281 455.646393,268.125519 
	C437.818970,259.559418 427.313629,244.894073 426.963715,224.734070 
	C426.481110,196.930313 426.650330,169.105240 427.098572,141.298294 
	C427.509216,115.823845 449.927032,94.695030 475.684998,94.731415 
	C501.238190,94.767509 523.442261,115.709579 523.895996,141.067566 
	C524.393677,168.872986 524.264160,196.692535 524.147217,224.504822 
	C524.084717,239.356537 517.644531,251.411362 506.362305,261.389008 
M494.063751,173.500015 
	C494.039124,163.347046 494.175171,153.190460 493.945587,143.042130 
	C493.705566,132.432404 485.704895,124.470360 475.682770,124.457520 
	C465.638184,124.444649 457.185364,132.371948 457.100769,142.795044 
	C456.880554,169.923248 456.917084,197.055252 457.100525,224.184052 
	C457.156403,232.451859 463.302063,239.952789 470.744720,242.003235 
	C482.257690,245.175095 493.918182,236.121002 494.090637,223.433121 
	C494.312286,207.125214 494.094116,190.811325 494.063751,173.500015 
z"/>
<path fill="#E80303" opacity="1.000000" stroke="none" 
	d="
M1575.988525,198.001495 
	C1587.278320,222.044876 1598.440308,245.736420 1609.956543,270.179779 
	C1599.009155,270.179779 1589.049438,270.346710 1579.108398,269.992340 
	C1577.685181,269.941620 1575.837769,267.610870 1575.054810,265.930725 
	C1564.944336,244.236694 1554.992920,222.468552 1544.994629,200.722229 
	C1544.449829,199.537277 1543.847900,198.378601 1542.938599,196.528000 
	C1538.344727,203.710541 1533.496216,209.535065 1533.944580,218.690643 
	C1534.773682,235.616409 1534.181763,252.611755 1534.181763,269.880432 
	C1524.084473,269.880432 1514.368408,269.880432 1504.676514,269.880432 
	C1504.676514,212.384369 1504.676514,155.135284 1504.676514,97.566628 
	C1514.781982,97.566628 1524.336548,97.566628 1534.440918,97.566628 
	C1534.440918,117.037498 1534.440918,136.271439 1534.440918,156.969284 
	C1536.172119,154.676071 1537.067017,153.615479 1537.826660,152.465576 
	C1549.112061,135.384750 1560.437744,118.330048 1571.592651,101.164337 
	C1573.431030,98.335381 1575.407227,97.068382 1578.858154,97.168518 
	C1587.136475,97.408730 1595.426636,97.246208 1604.682495,97.246208 
	C1603.446533,99.461456 1602.671875,101.003387 1601.760864,102.459900 
	C1589.053101,122.775955 1576.373169,143.109848 1563.545776,163.350174 
	C1561.935791,165.890350 1561.654663,167.887909 1563.013184,170.630371 
	C1567.439453,179.565598 1571.598633,188.633087 1575.988525,198.001495 
z"/>
<path fill="#E80303" opacity="1.000000" stroke="none" 
	d="
M625.247559,127.270050 
	C617.718140,139.279282 610.517029,151.068451 602.970154,162.631943 
	C600.858643,165.867218 600.944580,168.289536 602.566895,171.692841 
	C617.371155,202.749313 631.968994,233.904205 646.611145,265.037872 
	C647.292786,266.487335 647.822876,268.008026 648.691711,270.159332 
	C637.928467,270.159332 627.821045,270.303802 617.728821,269.977478 
	C616.459534,269.936462 614.848877,267.612061 614.107605,266.015411 
	C604.029480,244.309082 594.077332,222.544250 584.092102,200.794785 
	C583.548279,199.610291 582.987122,198.433746 581.991882,196.309860 
	C578.044617,203.411957 572.696228,208.477890 573.026184,217.149353 
	C573.689880,234.593857 573.223694,252.081314 573.223694,269.866852 
	C563.149109,269.866852 553.433655,269.866852 543.695801,269.866852 
	C543.695801,212.406799 543.695801,155.159180 543.695801,97.579536 
	C553.789307,97.579536 563.347107,97.579536 573.444885,97.579536 
	C573.444885,117.009453 573.444885,136.250687 573.444885,156.927322 
	C575.170410,154.685562 576.078613,153.646606 576.832092,152.505447 
	C588.020569,135.560410 599.252136,118.643127 610.303284,101.608871 
	C612.320312,98.499924 614.470398,97.001717 618.347900,97.151535 
	C626.460144,97.464989 634.592896,97.246529 644.018555,97.246529 
	C637.476318,107.714272 631.460693,117.339447 625.247559,127.270050 
z"/>
<path fill="#E80101" opacity="1.000000" stroke="none" 
	d="
M1156.000000,270.180573 
	C1136.865845,270.180573 1118.231567,270.180573 1099.280396,270.180573 
	C1099.280396,212.561478 1099.280396,155.223953 1099.280396,97.568817 
	C1126.500977,97.568817 1153.387207,97.568817 1180.609619,97.568817 
	C1180.609619,107.351028 1180.609619,116.916878 1180.609619,127.097961 
	C1163.657959,127.097961 1146.622070,127.097961 1129.289551,127.097961 
	C1129.289551,140.274124 1129.289551,152.844894 1129.289551,165.984131 
	C1146.229126,165.984131 1163.270142,165.984131 1180.686035,165.984131 
	C1180.686035,176.129868 1180.686035,185.723007 1180.686035,195.795044 
	C1163.902832,195.795044 1146.846680,195.795044 1129.388672,195.795044 
	C1129.388672,210.615341 1129.388672,224.966354 1129.388672,239.810013 
	C1146.479980,239.810013 1163.541626,239.810013 1180.840332,239.810013 
	C1180.840332,250.044434 1180.840332,259.792358 1180.840332,270.180573 
	C1172.686890,270.180573 1164.593384,270.180573 1156.000000,270.180573 
z"/>
<path fill="#E80202" opacity="1.000000" stroke="none" 
	d="
M1647.000244,97.250183 
	C1664.161133,97.250252 1680.825073,97.423393 1697.481079,97.137245 
	C1702.046875,97.058815 1703.115234,98.506561 1702.932495,102.801254 
	C1702.594238,110.744652 1702.835815,118.712730 1702.835815,127.147034 
	C1685.466797,127.147034 1668.555786,127.147034 1651.266602,127.147034 
	C1651.266602,140.188354 1651.266602,152.756577 1651.266602,165.919418 
	C1668.033691,165.919418 1685.080078,165.919418 1702.556152,165.919418 
	C1702.556152,176.213486 1702.556152,185.924637 1702.556152,196.129486 
	C1685.468994,196.129486 1668.400635,196.129486 1651.126221,196.129486 
	C1651.126221,210.854630 1651.126221,225.092194 1651.126221,239.849945 
	C1668.423340,239.849945 1685.487793,239.849945 1702.770752,239.849945 
	C1702.770752,250.115250 1702.770752,259.860901 1702.770752,269.894409 
	C1675.541992,269.894409 1648.482666,269.894409 1621.128418,269.894409 
	C1621.128418,212.552643 1621.128418,155.311203 1621.128418,97.250175 
	C1629.651001,97.250175 1638.075562,97.250175 1647.000244,97.250183 
z"/>
<path fill="#E80202" opacity="1.000000" stroke="none" 
	d="
M1401.146729,111.164581 
	C1417.300903,94.119461 1439.874146,89.640739 1459.168945,99.838676 
	C1479.180054,110.415115 1488.692017,130.729782 1485.250977,156.752747 
	C1475.708496,156.752747 1466.131836,156.752747 1455.945068,156.752747 
	C1455.945068,152.163040 1456.132324,147.709732 1455.909302,143.277069 
	C1455.291504,131.004822 1445.490479,122.964447 1433.630981,124.834579 
	C1425.573364,126.105171 1419.173218,133.380951 1419.096313,142.639359 
	C1418.870850,169.790878 1418.847534,196.947037 1419.098877,224.098083 
	C1419.197266,234.732834 1427.610474,242.831573 1437.409058,242.764893 
	C1446.985840,242.699722 1455.364624,234.009262 1455.908813,223.358307 
	C1456.128174,219.064026 1455.944946,214.749191 1455.944946,210.098755 
	C1465.997803,210.098755 1475.716919,210.098755 1485.435913,210.098755 
	C1490.623169,244.739410 1469.830811,266.306732 1448.667480,271.456635 
	C1420.077393,278.413727 1390.220093,257.349487 1389.198486,227.914337 
	C1388.176758,198.468033 1388.755371,168.952042 1389.219238,139.475845 
	C1389.385498,128.909927 1393.988770,119.521523 1401.146729,111.164581 
z"/>
<path fill="#E80303" opacity="1.000000" stroke="none" 
	d="
M1024.992310,133.994598 
	C1015.977905,179.569290 1007.014099,224.717438 998.027100,269.982239 
	C987.177612,269.982239 976.727661,269.982239 965.872253,269.982239 
	C954.364075,212.700638 942.878357,155.530960 931.168884,97.247276 
	C935.202637,97.247276 938.739807,97.247276 942.276978,97.247276 
	C946.108582,97.247276 949.940796,97.204430 953.771729,97.255745 
	C963.182068,97.381798 961.239319,96.018059 962.886169,105.041504 
	C969.127197,139.238373 975.136719,173.477509 981.251587,207.697479 
	C981.332703,208.151627 981.657898,208.562195 982.427063,210.131119 
	C989.108337,171.974319 995.605347,134.869278 1002.137024,97.566742 
	C1012.222961,97.566742 1021.946289,97.566742 1032.190552,97.566742 
	C1029.754639,109.835548 1027.398804,121.701805 1024.992310,133.994598 
z"/>
<path fill="#E80202" opacity="1.000000" stroke="none" 
	d="
M1293.946289,239.000000 
	C1293.946655,249.475052 1293.946655,259.450104 1293.946655,269.803223 
	C1283.980957,269.803223 1274.262695,269.803223 1264.126221,269.803223 
	C1264.126221,222.599411 1264.126221,175.350464 1264.126221,127.507736 
	C1252.835449,127.507736 1241.934570,127.507736 1230.773438,127.507736 
	C1230.773438,117.205482 1230.773438,107.503502 1230.773438,97.526649 
	C1262.985229,97.526649 1294.726929,97.526649 1326.831787,97.526649 
	C1326.831787,107.408203 1326.831787,117.111786 1326.831787,127.280685 
	C1315.940308,127.280685 1305.187622,127.280685 1293.945801,127.280685 
	C1293.945801,164.659683 1293.945801,201.579834 1293.946289,239.000000 
z"/>
<path fill="#E80202" opacity="1.000000" stroke="none" 
	d="
M1748.975098,142.006943 
	C1748.975098,137.016678 1748.975098,132.524963 1748.975098,127.464607 
	C1737.858643,127.464607 1726.947510,127.464607 1715.884644,127.464607 
	C1715.884644,117.175171 1715.884644,107.463676 1715.884644,97.507042 
	C1748.113647,97.507042 1779.853027,97.507042 1811.925781,97.507042 
	C1811.925781,107.340912 1811.925781,116.926636 1811.925781,127.146286 
	C1801.164062,127.146286 1790.287354,127.146286 1779.062500,127.146286 
	C1779.062500,175.010178 1779.062500,222.245987 1779.062500,269.831238 
	C1768.990601,269.831238 1759.273438,269.831238 1748.975098,269.831238 
	C1748.975098,227.361450 1748.975098,184.933472 1748.975098,142.006943 
z"/>
<path fill="#E80505" opacity="1.000000" stroke="none" 
	d="
M1339.501587,213.000153 
	C1339.502808,174.364853 1339.502808,136.229553 1339.502808,97.668442 
	C1349.622559,97.668442 1359.171387,97.668442 1369.285889,97.668442 
	C1369.285889,154.920258 1369.285889,212.272171 1369.285889,269.907837 
	C1359.558716,269.907837 1349.802368,269.907837 1339.500366,269.907837 
	C1339.500366,251.039963 1339.500366,232.270065 1339.501587,213.000153 
z"/>
<path fill="#E80101" opacity="1.000000" stroke="none" 
	d="
M1046.959229,121.000046 
	C1046.959595,113.012100 1046.959595,105.524139 1046.959595,97.644943 
	C1056.936523,97.644943 1066.632080,97.644943 1076.665771,97.644943 
	C1076.665771,155.151031 1076.665771,212.377777 1076.665771,269.893036 
	C1066.859863,269.893036 1057.128662,269.893036 1046.958984,269.893036 
	C1046.958984,220.346115 1046.958984,170.923065 1046.959229,121.000046 
z"/>
<path fill="#E90707" opacity="1.000000" stroke="none" 
	d="
M1915.707275,449.700195 
	C1914.161987,457.667999 1914.161987,457.667999 1902.701538,456.345428 
	C1901.297607,446.969940 1899.872070,437.450775 1898.446533,427.931610 
	C1898.093506,427.954254 1897.740601,427.976898 1897.387573,427.999573 
	C1896.005493,437.426392 1894.623535,446.853210 1893.279785,456.018433 
	C1892.600464,456.379333 1892.327271,456.644531 1892.041260,456.659088 
	C1881.549438,457.193115 1881.596558,457.181763 1879.839233,446.959076 
	C1877.021851,430.568359 1874.127319,414.190887 1871.291016,397.803345 
	C1871.067749,396.513214 1871.044312,395.188507 1870.938232,393.995789 
	C1871.401855,393.677704 1871.659302,393.350098 1871.935913,393.333130 
	C1881.657593,392.736206 1881.606689,392.747162 1882.920532,402.611572 
	C1884.233643,412.472290 1885.663330,422.317474 1887.724365,432.123535 
	C1889.470337,420.326721 1891.413086,408.553741 1892.849487,396.719330 
	C1893.315308,392.882233 1895.425293,393.198669 1897.976929,393.215149 
	C1900.491455,393.231384 1902.676025,392.801666 1903.139160,396.677094 
	C1904.557129,408.547394 1906.470215,420.358612 1908.811646,432.206818 
	C1910.428711,421.242920 1912.471680,410.318054 1913.481934,399.298492 
	C1913.982666,393.837128 1916.193726,392.535919 1920.921265,393.216614 
	C1922.205200,393.401489 1923.516357,393.397522 1925.338257,393.513580 
	C1922.122925,412.307343 1918.959839,430.795197 1915.707275,449.700195 
z"/>
<path fill="#E90808" opacity="1.000000" stroke="none" 
	d="
M1687.151245,441.994446 
	C1687.150391,447.105347 1687.150391,451.717377 1687.150391,456.541138 
	C1683.318481,456.541138 1680.061279,456.541138 1676.452515,456.541138 
	C1676.452515,435.529053 1676.452515,414.676178 1676.452515,392.670837 
	C1680.975342,393.362244 1685.758545,392.872742 1688.908081,394.909424 
	C1692.229492,397.057129 1693.991577,401.616211 1696.804932,405.652618 
	C1701.645508,398.395874 1705.185913,389.441956 1716.839844,394.074158 
	C1716.839844,414.454468 1716.839844,435.451904 1716.839844,456.536804 
	C1713.487427,456.536804 1710.213013,456.536804 1706.362915,456.536804 
	C1706.362915,441.443481 1706.362915,426.567780 1706.362915,411.692047 
	C1706.024780,411.580292 1705.686646,411.468506 1705.348511,411.356720 
	C1702.553589,415.311798 1699.758789,419.266846 1696.713379,423.576385 
	C1693.695190,419.201111 1690.989868,415.279510 1688.284668,411.357880 
	C1687.907104,411.411530 1687.529663,411.465149 1687.152100,411.518768 
	C1687.152100,421.511047 1687.152100,431.503296 1687.151245,441.994446 
z"/>
<path fill="#E90909" opacity="1.000000" stroke="none" 
	d="
M1261.888306,393.225586 
	C1265.807251,393.658051 1269.451782,393.507751 1272.652954,394.626526 
	C1284.749146,398.854095 1288.568604,413.994965 1278.931396,424.743164 
	C1286.381226,434.392517 1282.679932,445.593750 1283.797485,456.533936 
	C1279.762939,456.533936 1276.488403,456.533936 1272.460571,456.533936 
	C1272.460571,451.422821 1272.469604,446.323029 1272.458740,441.223267 
	C1272.437134,431.193237 1269.554565,428.704041 1258.531006,429.897827 
	C1258.531006,438.667358 1258.531006,447.548065 1258.531006,456.558105 
	C1254.520020,456.558105 1251.252441,456.558105 1247.710693,456.558105 
	C1247.710693,435.476410 1247.710693,414.612305 1247.710693,393.225555 
	C1252.527466,393.225555 1256.968994,393.225555 1261.888306,393.225586 
M1258.468750,411.481689 
	C1258.468750,413.727783 1258.468750,415.973846 1258.468750,418.670258 
	C1263.931274,418.203979 1269.509399,420.273529 1272.407227,414.688232 
	C1273.393921,412.786499 1273.147095,409.212891 1271.949219,407.409393 
	C1268.760864,402.609680 1263.595947,404.280243 1258.468872,404.431946 
	C1258.468872,406.680206 1258.468872,408.628967 1258.468750,411.481689 
z"/>
<path fill="#E90808" opacity="1.000000" stroke="none" 
	d="
M1625.202881,429.771698 
	C1624.781128,438.730835 1624.781128,447.477570 1624.781128,456.492706 
	C1620.457397,456.492706 1617.198486,456.492706 1613.532471,456.492706 
	C1613.532471,435.623230 1613.532471,414.773865 1613.532471,392.941010 
	C1621.496094,393.301453 1629.447388,392.606689 1636.892822,394.230560 
	C1650.051025,397.100281 1654.921143,413.212555 1644.796021,424.681885 
	C1652.185059,434.333313 1648.295410,445.571747 1649.485107,456.520203 
	C1645.600586,456.520203 1642.329102,456.520203 1638.213623,456.520203 
	C1638.213623,451.639648 1638.216064,446.722504 1638.213257,441.805359 
	C1638.207275,431.272888 1636.146362,429.269287 1625.202881,429.771698 
M1628.537598,418.600067 
	C1629.532471,418.593933 1630.532593,418.652679 1631.521240,418.570709 
	C1636.462646,418.161072 1639.278809,415.458954 1639.212891,411.240692 
	C1639.148193,407.107758 1636.151123,404.404877 1631.243530,404.179382 
	C1629.008789,404.076691 1626.765503,404.161957 1624.211914,404.161957 
	C1624.211914,408.543274 1623.954468,412.200104 1624.370972,415.778473 
	C1624.493652,416.832733 1626.522949,417.665039 1628.537598,418.600067 
z"/>
<path fill="#E80505" opacity="1.000000" stroke="none" 
	d="
M1363.102539,418.128876 
	C1362.030396,417.529144 1361.030762,417.000916 1360.919800,416.326416 
	C1360.652222,414.701813 1360.809082,413.008545 1360.779541,411.343262 
	C1360.711182,407.494446 1359.365723,403.860077 1355.322144,403.613129 
	C1352.942749,403.467834 1349.567017,405.281891 1348.130615,407.284363 
	C1345.735474,410.623108 1346.871094,414.640808 1350.129517,417.025604 
	C1353.992798,419.852936 1358.428589,421.886719 1362.545410,424.381256 
	C1369.813721,428.785553 1372.886475,434.972076 1371.569946,442.279083 
	C1369.903687,451.528595 1362.309570,457.918732 1353.403687,457.565430 
	C1344.337891,457.205780 1336.925049,449.961914 1336.146240,440.618896 
	C1335.997803,438.838318 1336.124878,437.034790 1336.124878,435.000427 
	C1339.903442,435.000427 1343.302612,435.000427 1346.909912,435.000427 
	C1347.018066,437.005463 1346.889038,438.848724 1347.259888,440.585236 
	C1347.989624,444.003235 1350.177612,446.808197 1353.697144,446.289368 
	C1356.025635,445.946198 1358.661377,443.854889 1360.038574,441.796295 
	C1362.059814,438.774292 1360.184082,435.965759 1357.427124,434.222107 
	C1353.216919,431.559326 1348.684937,429.393402 1344.547363,426.630280 
	C1336.896851,421.521118 1334.068604,411.450500 1337.669434,403.224792 
	C1341.105225,395.376190 1349.274536,391.085144 1357.721680,392.949036 
	C1364.668335,394.481873 1369.286987,398.879517 1370.953857,405.735107 
	C1371.873047,409.515747 1371.698853,413.562225 1372.069824,418.133881 
	C1368.789062,418.133881 1366.184204,418.133881 1363.102539,418.128876 
z"/>
<path fill="#E90A0A" opacity="1.000000" stroke="none" 
	d="
M1161.758789,452.822693 
	C1160.829102,454.435913 1159.928345,456.589325 1158.965576,456.617310 
	C1150.027588,456.877075 1141.078979,456.770844 1131.867188,456.770844 
	C1131.867188,435.450470 1131.867188,414.569122 1131.867188,393.455994 
	C1141.748169,393.455994 1151.326416,393.455994 1161.287476,393.455994 
	C1161.287476,396.965149 1161.287476,400.352722 1161.287476,404.128754 
	C1155.316895,404.128754 1149.371826,404.128754 1143.019897,404.128754 
	C1143.019897,408.884857 1143.019897,413.279633 1143.019897,418.312866 
	C1148.899902,418.312866 1154.940430,418.312866 1161.350586,418.312866 
	C1161.350586,422.305603 1161.350586,425.678558 1161.350586,429.627625 
	C1155.212646,429.627625 1149.152466,429.627625 1142.860474,429.627625 
	C1142.860474,435.094818 1142.860474,439.993225 1142.860474,445.473419 
	C1149.114380,445.473419 1155.177490,445.473419 1161.758911,445.473419 
	C1161.758911,448.156769 1161.758911,450.266846 1161.758789,452.822693 
z"/>
<path fill="#E90707" opacity="1.000000" stroke="none" 
	d="
M1422.802734,398.701385 
	C1422.685669,394.180481 1424.626709,392.728302 1428.654541,393.169312 
	C1431.584717,393.490112 1434.578247,393.232025 1437.699585,393.232025 
	C1441.372437,414.484802 1444.959595,435.241791 1448.542236,455.972107 
	C1439.152588,458.212982 1437.797119,457.548248 1436.648315,450.075134 
	C1432.668579,450.075134 1428.622925,450.075134 1424.433716,450.075134 
	C1423.972778,452.210724 1423.526978,454.276276 1423.041016,456.527649 
	C1419.577148,456.527649 1416.329102,456.527649 1412.285889,456.527649 
	C1415.801636,437.204651 1419.265991,418.163574 1422.802734,398.701385 
M1427.716553,430.094269 
	C1427.207031,433.183289 1426.697632,436.272278 1426.154053,439.568268 
	C1429.177490,439.568268 1431.897217,439.568268 1434.882080,439.568268 
	C1433.573120,430.940857 1432.319824,422.680725 1431.066650,414.420563 
	C1430.764038,414.445221 1430.461548,414.469879 1430.158936,414.494537 
	C1429.390015,419.408447 1428.621094,424.322357 1427.716553,430.094269 
z"/>
<path fill="#E90707" opacity="1.000000" stroke="none" 
	d="
M1535.712158,393.232056 
	C1539.191162,392.614441 1540.151123,394.183167 1540.613892,396.936432 
	C1543.915894,416.583588 1547.336426,436.210846 1550.801636,456.322601 
	C1547.189575,456.322601 1543.832642,456.322601 1540.048706,456.322601 
	C1539.656250,454.470032 1539.216797,452.395233 1538.643188,449.687225 
	C1536.348633,449.687225 1533.899658,449.825043 1531.472412,449.653961 
	C1528.094727,449.415894 1525.564819,449.776062 1525.726807,454.190521 
	C1525.756958,455.013153 1524.004883,456.493195 1522.929688,456.646179 
	C1520.366821,457.010773 1517.717041,456.763702 1514.455811,456.763702 
	C1518.348267,435.227936 1522.121216,414.353729 1525.938843,393.231964 
	C1529.306641,393.231964 1532.285400,393.231964 1535.712158,393.232056 
M1536.064087,433.281006 
	C1535.099487,426.765198 1534.134888,420.249359 1533.170288,413.733551 
	C1531.758911,418.099670 1531.037109,422.342285 1530.372314,426.593811 
	C1529.709351,430.834198 1529.103638,435.083588 1528.449463,439.485565 
	C1531.479248,439.485565 1534.142822,439.485565 1537.035645,439.485565 
	C1536.693359,437.411957 1536.423706,435.778961 1536.064087,433.281006 
z"/>
<path fill="#E90909" opacity="1.000000" stroke="none" 
	d="
M1854.959229,393.227173 
	C1858.427734,393.227203 1861.403809,393.227203 1864.801392,393.227203 
	C1864.801392,396.856110 1864.801392,400.228027 1864.801392,404.167358 
	C1858.911499,404.167358 1852.855469,404.167358 1846.503418,404.167358 
	C1846.503418,409.108063 1846.503418,413.497284 1846.503418,418.468811 
	C1852.703979,418.468811 1858.764038,418.468811 1865.003418,418.468811 
	C1865.003418,422.465607 1865.003418,425.881104 1865.003418,429.648010 
	C1858.791870,429.648010 1852.854248,429.648010 1846.556030,429.648010 
	C1846.556030,434.874695 1846.556030,439.764893 1846.556030,445.228485 
	C1852.539551,445.228485 1858.588257,445.228485 1864.971680,445.228485 
	C1864.971680,449.340149 1864.971680,452.887817 1864.971680,456.593567 
	C1855.129517,456.593567 1845.525879,456.593567 1835.539307,456.593567 
	C1835.539307,435.571808 1835.539307,414.726440 1835.539307,393.227173 
	C1841.936523,393.227173 1848.201660,393.227173 1854.959229,393.227173 
z"/>
<path fill="#E90808" opacity="1.000000" stroke="none" 
	d="
M1220.125610,415.881775 
	C1221.322021,417.088226 1222.487427,418.375092 1223.711670,418.433929 
	C1228.670044,418.672333 1233.646606,418.532959 1238.904541,418.532959 
	C1238.904541,422.335571 1238.904541,425.738861 1238.904541,429.692078 
	C1232.699585,429.692078 1226.631470,429.692078 1220.356689,429.692078 
	C1220.356689,435.150726 1220.356689,440.065002 1220.356689,445.501984 
	C1226.664185,445.501984 1232.749023,445.501984 1238.947754,445.501984 
	C1238.947754,449.448517 1238.947754,452.869904 1238.947754,456.529205 
	C1229.085571,456.529205 1219.492432,456.529205 1209.496338,456.529205 
	C1209.496338,435.615509 1209.496338,414.767822 1209.496338,393.573700 
	C1219.254150,393.573700 1228.960449,393.573700 1238.913574,393.573700 
	C1238.913574,397.011536 1238.913574,400.280762 1238.913574,404.101624 
	C1232.904053,404.101624 1226.849243,404.101624 1220.121582,404.101624 
	C1220.121582,408.211243 1220.121582,411.804474 1220.125610,415.881775 
z"/>
<path fill="#E90707" opacity="1.000000" stroke="none" 
	d="
M1736.051758,412.056641 
	C1736.051758,414.340363 1736.051758,416.142151 1736.051758,418.455048 
	C1742.483032,418.455048 1748.552002,418.455048 1754.855713,418.455048 
	C1754.855713,422.375702 1754.855713,425.781799 1754.855713,429.536133 
	C1748.694214,429.536133 1742.748779,429.536133 1736.428711,429.536133 
	C1736.428711,434.904144 1736.428711,439.940460 1736.428711,445.476196 
	C1742.516479,445.476196 1748.591431,445.476196 1754.891113,445.476196 
	C1754.891113,449.385590 1754.891113,452.801788 1754.891113,456.492950 
	C1744.981934,456.492950 1735.261230,456.492950 1725.277100,456.492950 
	C1725.277100,435.546234 1725.277100,414.814484 1725.277100,393.657776 
	C1734.974365,393.657776 1744.668457,393.657776 1754.710693,393.657776 
	C1754.710693,396.938629 1754.710693,400.319489 1754.710693,404.230774 
	C1748.663086,404.230774 1742.603638,404.230774 1736.051758,404.230774 
	C1736.051758,407.019836 1736.051758,409.297272 1736.051758,412.056641 
z"/>
<path fill="#E90808" opacity="1.000000" stroke="none" 
	d="
M1378.119263,411.001617 
	C1378.119751,405.017029 1378.119751,399.531891 1378.119751,393.639648 
	C1388.074951,393.639648 1397.781616,393.639648 1407.815430,393.639648 
	C1407.815430,396.999084 1407.815430,400.381531 1407.815430,404.303192 
	C1401.667725,404.303192 1395.599121,404.303192 1389.360718,404.303192 
	C1389.360718,409.245514 1389.360718,413.654999 1389.360718,418.456635 
	C1395.550049,418.456635 1401.492676,418.456635 1407.802490,418.456635 
	C1407.802490,422.221619 1407.802490,425.611908 1407.802490,429.543091 
	C1401.808594,429.543091 1395.732056,429.543091 1389.387573,429.543091 
	C1389.387573,434.980865 1389.387573,439.894867 1389.387573,445.369934 
	C1395.504517,445.369934 1401.567017,445.369934 1407.906128,445.369934 
	C1407.906128,449.336060 1407.906128,452.750031 1407.906128,456.468079 
	C1398.105591,456.468079 1388.381592,456.468079 1378.118774,456.468079 
	C1378.118774,441.350739 1378.118774,426.425903 1378.119263,411.001617 
z"/>
<path fill="#E80404" opacity="1.000000" stroke="none" 
	d="
M1570.988037,431.000000 
	C1570.989380,418.355164 1570.989380,406.210327 1570.989380,392.703033 
	C1579.625488,393.354736 1588.150757,393.064301 1596.207764,394.866943 
	C1604.372437,396.693665 1608.296753,405.988342 1606.826416,416.077301 
	C1605.455444,425.483459 1598.840698,432.472015 1590.582153,433.072144 
	C1587.957031,433.262878 1585.306396,433.101898 1582.162231,433.101898 
	C1582.162231,441.021759 1582.162231,448.586060 1582.162231,456.450134 
	C1578.267334,456.450134 1574.876953,456.450134 1570.986816,456.450134 
	C1570.986816,448.043518 1570.986816,439.771759 1570.988037,431.000000 
M1593.530640,405.883972 
	C1589.857422,405.121124 1586.184326,404.358307 1582.277832,403.547028 
	C1582.277832,410.540558 1582.277832,416.256195 1582.277832,422.215210 
	C1586.814331,421.804382 1591.744751,423.758820 1594.488525,418.581940 
	C1596.631226,414.538788 1596.981445,410.408783 1593.530640,405.883972 
z"/>
<path fill="#E80303" opacity="1.000000" stroke="none" 
	d="
M145.057861,422.063507 
	C145.072815,429.535980 145.199875,436.520874 145.073364,443.501221 
	C144.891052,453.561646 137.324005,460.417389 126.747818,460.307159 
	C116.442863,460.199799 109.076675,453.357849 108.929352,443.492218 
	C108.797798,434.682648 108.828476,425.867737 108.962654,417.057861 
	C109.113632,407.145264 116.931671,400.000275 127.257690,400.126312 
	C137.423416,400.250397 144.797775,407.278320 145.037582,417.085022 
	C145.074158,418.580566 145.051773,420.077576 145.057861,422.063507 
M134.984055,431.493652 
	C134.971573,426.671692 135.111450,421.843109 134.901459,417.029785 
	C134.712097,412.689117 131.378067,410.071533 126.724487,410.208771 
	C122.263885,410.340302 119.153938,412.895660 119.079964,417.054077 
	C118.923256,425.863831 118.908981,434.680939 119.090111,443.489807 
	C119.179703,447.846863 122.003281,450.039062 126.779022,450.113861 
	C131.865280,450.193512 134.713654,447.988220 134.946976,443.459076 
	C135.134918,439.810730 134.985519,436.144989 134.984055,431.493652 
z"/>
<path fill="#E90808" opacity="1.000000" stroke="none" 
	d="
M1782.507202,436.547546 
	C1779.567383,422.006348 1776.754761,407.872009 1773.884521,393.447815 
	C1777.765625,393.447815 1781.207520,393.447815 1784.927856,393.447815 
	C1787.356689,406.785614 1789.761719,419.992188 1792.166626,433.198761 
	C1792.378418,433.204712 1792.590332,433.210663 1792.802124,433.216644 
	C1795.129883,420.065186 1797.457642,406.913757 1799.826904,393.527802 
	C1803.493774,393.527802 1806.878174,393.527802 1810.763428,393.527802 
	C1808.006348,407.624908 1805.312866,421.431366 1802.603149,435.234711 
	C1801.420044,441.262268 1800.056519,447.259399 1799.069458,453.318298 
	C1798.626099,456.038727 1797.475098,456.798157 1794.814819,456.834412 
	C1786.532227,456.947266 1786.546509,457.058319 1784.956787,448.681671 
	C1784.213867,444.766663 1783.410522,440.863098 1782.507202,436.547546 
z"/>
<path fill="#E90707" opacity="1.000000" stroke="none" 
	d="
M1190.190063,408.168274 
	C1191.146606,403.022736 1192.030151,398.305664 1192.941040,393.442383 
	C1196.507935,393.442383 1199.777954,393.442383 1203.755371,393.442383 
	C1202.081421,402.209717 1200.494751,410.753784 1198.811157,419.278748 
	C1196.623657,430.355804 1194.195190,441.388641 1192.228638,452.503937 
	C1191.644165,455.807465 1190.536865,456.915253 1187.169556,456.848969 
	C1179.503784,456.698059 1179.543091,456.865234 1178.075684,449.497498 
	C1174.540527,431.748047 1170.959351,414.007721 1167.407227,396.261658 
	C1167.248535,395.469421 1167.193359,394.656464 1167.048462,393.529541 
	C1170.694458,393.529541 1174.105225,393.529541 1177.963501,393.529541 
	C1180.356445,406.659760 1182.760620,419.851562 1185.164917,433.043335 
	C1185.400269,433.065338 1185.635620,433.087372 1185.870972,433.109375 
	C1187.286377,424.938477 1188.701782,416.767609 1190.190063,408.168274 
z"/>
<path fill="#E80505" opacity="1.000000" stroke="none" 
	d="
M197.366760,459.053864 
	C190.025299,455.195679 186.658463,449.524323 187.243210,441.297363 
	C190.684677,441.297363 193.773514,441.297363 196.997833,441.297363 
	C197.157913,442.044830 197.342361,442.672852 197.421631,443.313904 
	C197.935181,447.466553 199.804993,450.474365 204.426529,449.940247 
	C208.691879,449.447235 210.206512,446.188416 209.874557,442.331604 
	C209.615295,439.319641 209.383530,435.803253 207.710495,433.592438 
	C206.604492,432.130920 202.898376,432.010010 200.482315,432.308502 
	C196.487015,432.802124 192.593399,434.118683 187.762741,435.308807 
	C188.324738,422.975403 188.813644,412.246094 189.313248,401.281952 
	C198.984909,401.281952 208.237686,401.281952 217.839890,401.281952 
	C217.839890,404.330994 217.839890,407.387665 217.839890,410.931213 
	C211.498352,410.931213 205.088974,410.931213 198.340286,410.931213 
	C198.340286,414.817719 198.340286,418.242859 198.340286,421.992706 
	C207.351990,420.291901 215.305908,422.613556 218.680710,431.610138 
	C221.569092,439.310059 221.879807,447.747864 215.849075,454.723541 
	C210.965240,460.372681 204.740860,461.596039 197.366760,459.053864 
z"/>
<path fill="#E90A0A" opacity="1.000000" stroke="none" 
	d="
M79.127655,459.696045 
	C76.358582,459.696045 74.069511,459.696045 71.695755,459.696045 
	C70.762131,453.970245 70.930634,449.325378 74.612640,444.801514 
	C80.376617,437.719818 85.513947,430.124451 90.829285,422.684204 
	C91.867134,421.231476 92.885887,419.575470 93.251221,417.871246 
	C94.019218,414.288757 92.371384,411.538696 88.945183,410.481873 
	C85.275391,409.349884 82.775093,411.364105 81.676384,414.756622 
	C81.028358,416.757629 81.087975,418.987793 80.789177,421.445312 
	C77.775299,421.445312 74.715057,421.445312 71.648979,421.445312 
	C69.851395,412.993927 73.233627,405.506683 80.479393,401.877136 
	C87.061218,398.580170 94.403191,400.084015 99.474991,405.768005 
	C104.853554,411.795715 105.356827,419.682098 100.416496,426.889374 
	C95.451485,434.132629 90.164314,441.155060 84.542397,448.932678 
	C91.018021,448.932678 96.860794,448.932678 103.056267,448.932678 
	C103.056267,452.682800 103.056267,455.908325 103.056267,459.696045 
	C95.141365,459.696045 87.374512,459.696045 79.127655,459.696045 
z"/>
<path fill="#E90909" opacity="1.000000" stroke="none" 
	d="
M160.183746,415.696472 
	C160.119919,417.763397 160.119919,419.415802 160.119919,421.420593 
	C156.756210,421.420593 153.702835,421.420593 150.620804,421.420593 
	C148.681061,413.390991 151.822205,405.947540 158.811935,402.103180 
	C165.233536,398.571289 172.681641,399.828735 177.951004,405.334351 
	C183.363327,410.989288 184.374985,419.140411 179.853851,425.978943 
	C174.829956,433.577972 169.286530,440.833496 163.448441,448.963928 
	C169.896240,448.963928 175.717758,448.963928 181.892792,448.963928 
	C181.892792,452.776367 181.892792,455.976807 181.892792,459.384308 
	C171.348770,459.384308 160.960388,459.384308 150.466736,459.384308 
	C149.613693,453.704315 150.083466,448.928650 153.856277,444.326263 
	C159.537201,437.396210 164.544357,429.911102 169.771103,422.614075 
	C170.719589,421.289886 171.679886,419.817352 172.056808,418.272339 
	C172.913391,414.761078 171.638443,411.863403 168.181870,410.631653 
	C163.954102,409.125031 161.655869,411.611023 160.183746,415.696472 
z"/>
<path fill="#E90808" opacity="1.000000" stroke="none" 
	d="
M1306.540771,456.657074 
	C1303.275635,456.742554 1300.459717,456.742554 1297.793213,456.742554 
	C1296.811279,445.908600 1296.792358,435.096832 1294.622925,424.735382 
	C1292.433838,414.279846 1288.111572,404.270996 1284.558716,393.569275 
	C1286.522827,393.429810 1287.951172,393.439972 1289.339478,393.209320 
	C1293.892334,392.453125 1296.228271,393.992340 1297.114014,398.864746 
	C1298.200684,404.841888 1300.241333,410.645569 1302.240356,417.862946 
	C1304.835449,408.778351 1307.031860,401.089294 1309.235840,393.373810 
	C1312.911987,393.373810 1316.217529,393.373810 1320.056519,393.373810 
	C1317.190063,401.959900 1314.725098,410.385132 1311.554932,418.536102 
	C1308.598999,426.135834 1307.421143,433.804535 1307.765381,441.913177 
	C1307.971924,446.779602 1307.278687,451.684174 1306.540771,456.657074 
z"/>
<path fill="#E90A0A" opacity="1.000000" stroke="none" 
	d="
M1481.965088,398.934753 
	C1481.965088,400.872467 1481.965088,402.357758 1481.965088,404.235626 
	C1477.867065,404.235626 1474.080200,404.235626 1469.900146,404.235626 
	C1469.900146,421.729614 1469.900146,438.835968 1469.900146,456.357117 
	C1466.146606,456.357117 1462.780884,456.357117 1458.908691,456.357117 
	C1458.908691,439.280060 1458.908691,422.201630 1458.908691,404.465332 
	C1454.578003,404.465332 1450.704590,404.465332 1446.725952,404.465332 
	C1446.725952,400.408905 1446.725952,397.021698 1446.725952,393.451294 
	C1458.525024,393.451294 1469.947388,393.451294 1481.724121,393.451294 
	C1481.811035,395.264679 1481.888062,396.873474 1481.965088,398.934753 
z"/>
<path fill="#E80505" opacity="1.000000" stroke="none" 
	d="
M1657.034180,452.731201 
	C1657.034302,432.815704 1657.034302,413.372070 1657.034302,393.583893 
	C1660.788330,393.583893 1664.165649,393.583893 1667.830688,393.583893 
	C1667.830688,414.582092 1667.830688,435.444031 1667.830688,457.593811 
	C1664.321045,454.363495 1658.491699,461.200043 1657.034180,452.731201 
z"/>
<path fill="#E90707" opacity="1.000000" stroke="none" 
	d="
M1816.106201,416.000061 
	C1816.106567,408.357483 1816.106567,401.214905 1816.106567,393.653748 
	C1819.709717,393.653748 1823.077271,393.653748 1826.817871,393.653748 
	C1826.817871,414.458130 1826.817871,435.310638 1826.817871,456.465698 
	C1823.396851,456.465698 1820.011719,456.465698 1816.105835,456.465698 
	C1816.105835,442.998291 1816.105835,429.749146 1816.106201,416.000061 
z"/>
<path fill="#E90A0A" opacity="1.000000" stroke="none" 
	d="
M1492.955078,462.702271 
	C1490.172729,464.986664 1487.567871,466.930115 1484.859131,468.951019 
	C1480.681519,462.084381 1489.447144,461.874847 1488.769531,457.131866 
	C1487.288086,456.925842 1485.730957,456.709290 1483.923096,456.457855 
	C1483.923096,452.979492 1483.923096,449.575989 1483.923096,446.085876 
	C1487.511597,446.085876 1490.909180,446.085876 1495.428955,446.085876 
	C1494.623901,451.791748 1493.878296,457.076508 1492.955078,462.702271 
z"/>
<path fill="#FFFDFD" opacity="1.000000" stroke="none" 
	d="
M239.998810,240.000153 
	C236.865891,240.000153 234.221405,240.000153 231.256042,240.000153 
	C231.256042,225.403885 231.256042,211.026001 231.256042,195.767029 
	C238.031998,196.065582 244.908539,195.563553 251.439026,196.836594 
	C262.460541,198.985153 269.188354,209.415878 267.956177,220.723358 
	C266.836945,230.994202 257.554230,239.527313 246.977463,239.962982 
	C244.817215,240.051971 242.650803,239.991638 239.998810,240.000153 
z"/>
<path fill="#FFFDFD" opacity="1.000000" stroke="none" 
	d="
M240.038147,126.962708 
	C243.691376,126.964165 246.852554,126.914566 250.011566,126.976357 
	C260.862610,127.188576 269.265381,135.657150 269.298737,146.370224 
	C269.332123,157.110184 261.063782,165.652405 250.186462,165.921219 
	C244.048996,166.072891 237.904724,165.948563 231.413635,165.948563 
	C231.413635,153.054153 231.413635,140.346802 231.413635,126.962708 
	C234.032394,126.962708 236.788757,126.962708 240.038147,126.962708 
z"/>
<path fill="#FFFBFB" opacity="1.000000" stroke="none" 
	d="
M857.242432,195.999863 
	C857.244568,178.522644 857.106628,161.543884 857.294006,144.568726 
	C857.439270,131.403534 867.108459,122.862885 879.207336,124.798592 
	C887.497437,126.124924 893.801147,133.202454 894.122803,142.278854 
	C894.470520,152.088303 894.338135,161.915100 894.395691,171.734436 
	C894.491211,188.045593 894.847717,204.363052 894.481018,220.664047 
	C894.377808,225.251938 893.031067,230.335266 890.670532,234.231537 
	C886.702515,240.780914 880.336304,244.052795 872.333008,242.228302 
	C864.387756,240.417053 858.961853,235.224030 858.104187,227.381683 
	C856.988281,217.178360 857.456177,206.801849 857.242432,195.999863 
z"/>
<path fill="#FFFAFA" opacity="1.000000" stroke="none" 
	d="
M380.671143,180.000702 
	C380.721649,194.149780 380.799225,207.798843 380.807373,221.447937 
	C380.812744,230.412735 376.964142,237.266098 368.843781,241.154480 
	C358.748962,245.988312 346.337433,239.133591 344.045837,227.637436 
	C343.530090,225.050186 343.444336,222.344757 343.439545,219.693207 
	C343.395782,195.557556 343.409302,171.421799 343.423126,147.286072 
	C343.424164,145.458206 343.446869,143.618423 343.645477,141.804550 
	C344.764160,131.587830 352.428772,124.417511 362.132050,124.442116 
	C371.848816,124.466766 379.747986,131.702850 380.214294,142.060425 
	C380.775299,154.522079 380.552307,167.019028 380.671143,180.000702 
z"/>
<path fill="#FFFEFE" opacity="1.000000" stroke="none" 
	d="
M494.064575,174.000015 
	C494.094116,190.811325 494.312286,207.125214 494.090637,223.433121 
	C493.918182,236.121002 482.257690,245.175095 470.744720,242.003235 
	C463.302063,239.952789 457.156403,232.451859 457.100525,224.184052 
	C456.917084,197.055252 456.880554,169.923248 457.100769,142.795044 
	C457.185364,132.371948 465.638184,124.444649 475.682770,124.457520 
	C485.704895,124.470360 493.705566,132.432404 493.945587,143.042130 
	C494.175171,153.190460 494.039124,163.347046 494.064575,174.000015 
z"/>
<path fill="#FDEEEE" opacity="1.000000" stroke="none" 
	d="
M1258.468750,411.029724 
	C1258.468872,408.628967 1258.468872,406.680206 1258.468872,404.431946 
	C1263.595947,404.280243 1268.760864,402.609680 1271.949219,407.409393 
	C1273.147095,409.212891 1273.393921,412.786499 1272.407227,414.688232 
	C1269.509399,420.273529 1263.931274,418.203979 1258.468750,418.670258 
	C1258.468750,415.973846 1258.468750,413.727783 1258.468750,411.029724 
z"/>
<path fill="#FDEEEE" opacity="1.000000" stroke="none" 
	d="
M1628.108032,418.599548 
	C1626.522949,417.665039 1624.493652,416.832733 1624.370972,415.778473 
	C1623.954468,412.200104 1624.211914,408.543274 1624.211914,404.161957 
	C1626.765503,404.161957 1629.008789,404.076691 1631.243530,404.179382 
	C1636.151123,404.404877 1639.148193,407.107758 1639.212891,411.240692 
	C1639.278809,415.458954 1636.462646,418.161072 1631.521240,418.570709 
	C1630.532593,418.652679 1629.532471,418.593933 1628.108032,418.599548 
z"/>
<path fill="#FDEEEE" opacity="1.000000" stroke="none" 
	d="
M1427.784302,429.665283 
	C1428.621094,424.322357 1429.390015,419.408447 1430.158936,414.494537 
	C1430.461548,414.469879 1430.764038,414.445221 1431.066650,414.420563 
	C1432.319824,422.680725 1433.573120,430.940857 1434.882080,439.568268 
	C1431.897217,439.568268 1429.177490,439.568268 1426.154053,439.568268 
	C1426.697632,436.272278 1427.207031,433.183289 1427.784302,429.665283 
z"/>
<path fill="#FDEEEE" opacity="1.000000" stroke="none" 
	d="
M1536.109131,433.713501 
	C1536.423706,435.778961 1536.693359,437.411957 1537.035645,439.485565 
	C1534.142822,439.485565 1531.479248,439.485565 1528.449463,439.485565 
	C1529.103638,435.083588 1529.709351,430.834198 1530.372314,426.593811 
	C1531.037109,422.342285 1531.758911,418.099670 1533.170288,413.733551 
	C1534.134888,420.249359 1535.099487,426.765198 1536.109131,433.713501 
z"/>
<path fill="#FFFAFA" opacity="1.000000" stroke="none" 
	d="
M1593.816895,406.169373 
	C1596.981445,410.408783 1596.631226,414.538788 1594.488525,418.581940 
	C1591.744751,423.758820 1586.814331,421.804382 1582.277832,422.215210 
	C1582.277832,416.256195 1582.277832,410.540558 1582.277832,403.547028 
	C1586.184326,404.358307 1589.857422,405.121124 1593.816895,406.169373 
z"/>
<path fill="#FFFBFB" opacity="1.000000" stroke="none" 
	d="
M134.984924,431.990295 
	C134.985519,436.144989 135.134918,439.810730 134.946976,443.459076 
	C134.713654,447.988220 131.865280,450.193512 126.779022,450.113861 
	C122.003281,450.039062 119.179703,447.846863 119.090111,443.489807 
	C118.908981,434.680939 118.923256,425.863831 119.079964,417.054077 
	C119.153938,412.895660 122.263885,410.340302 126.724487,410.208771 
	C131.378067,410.071533 134.712097,412.689117 134.901459,417.029785 
	C135.111450,421.843109 134.971573,426.671692 134.984924,431.990295 
z"/>
</svg>